<svg xmlns="http://www.w3.org/2000/svg" viewBox="0 0 320 120" role="img" aria-label="ESA Edge">
  <defs>
    <linearGradient id="g" x1="0" y1="0" x2="1" y2="1">
      <stop offset="0%" stop-color="#22d3ee"/>
      <stop offset="100%" stop-color="#7c3aed"/>
    </linearGradient>
  </defs>
  <rect x="4" y="4" width="312" height="112" rx="20" fill="#0f172a" stroke="url(#g)" stroke-width="8"/>
  <path d="M72 32h44l-6 16h-22v8h20v16h-20v8h23l-6 16H72V32zm79.5 0c19.2 0 31.5 10 31.5 28 0 17.9-12.3 28-31.5 28H127V32h24.5zm-8.5 16v24h8.4c8.9 0 14.6-5 14.6-12.1C166 53 160.3 48 151.4 48h-8.4zM208 32h20l23 48h-20l-3.2-8h-19.6l-3.2 8h-18L208 32zm8.1 12.9-6 15.1h12l-6-15.1z" fill="url(#g)"/>
  <circle cx="260" cy="60" r="10" fill="#22d3ee"/>
  <path d="M250 60h60" stroke="url(#g)" stroke-width="6" stroke-linecap="round"/>
</svg>
